<?xml version="1.0"?>
<svg xmlns="http://www.w3.org/2000/svg" viewBox="0 0 512 512" width="512" height="512"><g id="Solid"><path d="M392,208h16v16H392Zm0,48h16V240H392Zm0-64h16V176H392Zm0,96h16V272H392Zm0-160h16V112H392ZM72,48H244a27.987,27.987,0,0,1,19.577,48,27.945,27.945,0,0,1,5.713,32H368a8,8,0,0,1,6.314,3.088L376,133.255V58.229A111.691,111.691,0,0,0,304,32H72ZM392,160h16V144H392Zm24,200a8,8,0,1,0-8-8A8.009,8.009,0,0,0,416,360ZM208,264V248H164.15a30.939,30.939,0,0,0-3.668-5.518L145.08,224H244a27.987,27.987,0,0,0,19.577-48,27.945,27.945,0,0,0,5.713-32h94.8L376,159.314v39.268a69.593,69.593,0,0,1-65.037-14.828l-10.586,12A85.55,85.55,0,0,0,376,215.1V248H304v16h72v48.817a56.089,56.089,0,0,0,16.84,90.135,160.8,160.8,0,0,1-42.9,46.576,160.026,160.026,0,0,1-187.876,0A160.051,160.051,0,0,1,96,320V253.865l22.753,24.7a28.438,28.438,0,0,0,38.047,3.776,26.216,26.216,0,0,0,10.5-18.035c.012-.1.016-.206.027-.309Zm16.08,62.869,15.84,2.262,8-56-15.84-2.262ZM208,352a24,24,0,0,0,0,48h96a24,24,0,0,0,0-48ZM64,208h8a8.007,8.007,0,0,1,5.885,2.58l52.679,57.194.095.105a12.348,12.348,0,0,0,16.541,1.665,10.228,10.228,0,0,0,4.209-7.092,13.091,13.091,0,0,0-3.218-9.726l-26.337-31.6A7.993,7.993,0,0,1,120.006,216H120c0-30.756-7.863-51.327-14.459-63.168-7.107-12.759-14.313-18.411-14.386-18.466L100.8,121.6c1.379,1.034,32.5,25.1,35.031,86.4H244a12,12,0,0,0,0-24H160V168h84a12,12,0,0,0,0-24H160V128h84a12,12,0,0,0,0-24H160V88h84a12,12,0,0,0,0-24H64A32.036,32.036,0,0,0,32,96v80A32.036,32.036,0,0,0,64,208ZM200,376a8.009,8.009,0,0,0,8,8h96a8,8,0,0,0,0-16H208A8.009,8.009,0,0,0,200,376ZM416,32a24.028,24.028,0,0,0-24,24V96h16V64h16V329.376a24,24,0,1,1-16,0V304H392v12.232a8,8,0,0,1-2.664,5.961,39.94,39.94,0,0,0-13.305,31.4A40.379,40.379,0,0,0,415.811,392H416a39.993,39.993,0,0,0,26.664-69.807A8,8,0,0,1,440,316.232V56A24.028,24.028,0,0,0,416,32Zm40,192v63.98a40.2,40.2,0,0,0,4.284-3.695A40,40,0,0,0,456,224Zm-376,12.5L68.492,224H64a48.176,48.176,0,0,1-7.251-.548A40,40,0,0,0,80,296Z"/></g></svg>
